<?xml version="1.0" standalone="no"?>
<!DOCTYPE svg PUBLIC "-//W3C//DTD SVG 20010904//EN"
 "http://www.w3.org/TR/2001/REC-SVG-20010904/DTD/svg10.dtd">
<svg version="1.0" xmlns="http://www.w3.org/2000/svg"
 width="4088.000000pt" height="3018.000000pt" viewBox="0 0 4088.000000 3018.000000"
 preserveAspectRatio="xMidYMid meet">

<g transform="translate(0.000000,3018.000000) scale(0.100000,-0.100000)"
fill="#000000" stroke="none">
<path d="M37350 30170 c0 -6 -11 -15 -25 -20 -24 -9 -25 -14 -25 -84 0 -53 4
-77 15 -86 11 -9 15 -34 15 -96 0 -49 4 -84 10 -84 6 0 10 -22 10 -49 0 -28
-4 -53 -10 -56 -5 -3 -10 -32 -10 -65 0 -42 -4 -59 -15 -64 -11 -4 -15 -22
-15 -71 0 -36 -4 -73 -9 -83 -5 -9 -12 -25 -15 -34 -3 -10 -15 -18 -26 -18
-16 0 -20 -6 -20 -35 0 -33 -2 -35 -33 -35 -22 0 -41 -8 -56 -24 -13 -13 -34
-27 -47 -30 -15 -4 -24 -14 -24 -26 0 -12 -10 -24 -23 -29 -31 -12 -45 -30
-49 -66 -2 -25 -8 -31 -33 -33 -32 -4 -65 -28 -65 -47 0 -7 -7 -18 -15 -25 -8
-7 -15 -20 -15 -30 0 -29 -33 -50 -79 -50 -31 0 -43 -5 -47 -17 -18 -54 -38
-83 -66 -97 -17 -9 -36 -16 -43 -16 -6 0 -22 -11 -35 -25 -14 -14 -35 -25 -50
-25 -15 0 -36 -11 -50 -25 -14 -15 -35 -25 -51 -25 -14 0 -32 -7 -39 -15 -10
-12 -49 -15 -229 -15 l-218 0 -23 25 c-13 14 -31 25 -41 25 -9 0 -22 7 -29 15
-7 8 -21 15 -31 15 -11 0 -19 5 -19 10 0 6 -20 10 -44 10 -26 0 -48 6 -56 15
-7 8 -25 15 -41 15 -15 0 -31 5 -34 10 -3 6 -15 10 -26 10 -11 0 -22 7 -25 15
-4 8 -14 15 -23 15 -10 0 -28 11 -41 25 -16 17 -34 25 -56 25 -19 0 -34 6 -38
15 -3 8 -14 15 -25 15 -11 0 -23 5 -26 10 -3 6 -19 10 -34 10 -16 0 -37 10
-51 25 -13 14 -32 25 -42 25 -10 0 -21 7 -24 15 -4 8 -14 15 -24 15 -11 0 -22
5 -25 10 -3 6 -19 10 -34 10 -17 0 -38 11 -56 30 -18 19 -39 30 -56 30 -15 0
-31 5 -34 10 -3 6 -25 10 -49 10 -32 0 -48 6 -66 25 -23 24 -28 25 -156 25
-78 0 -135 -4 -139 -10 -3 -5 -15 -10 -26 -10 -11 0 -22 -7 -25 -15 -4 -9 -19
-15 -40 -15 -28 0 -34 -4 -34 -20 0 -11 -8 -23 -17 -26 -10 -3 -25 -9 -33 -14
-21 -13 -72 -37 -92 -44 -12 -3 -18 -16 -18 -36 0 -40 -18 -58 -61 -62 -31 -3
-34 -6 -37 -40 -2 -29 -8 -37 -25 -40 -16 -2 -23 -11 -25 -33 -3 -20 -20 -46
-53 -78 -27 -27 -49 -55 -49 -63 0 -8 -22 -36 -50 -63 -27 -27 -50 -55 -50
-63 0 -19 -42 -58 -62 -58 -10 0 -18 -10 -20 -22 -2 -15 -11 -24 -25 -26 -18
-3 -23 -10 -23 -35 0 -33 -27 -67 -54 -67 -20 0 -46 -34 -46 -62 0 -32 -39
-68 -73 -68 -14 0 -29 -4 -32 -10 -3 -5 -19 -10 -34 -10 -34 0 -68 -35 -73
-75 -2 -25 -8 -31 -33 -33 -16 -2 -34 -8 -40 -13 -5 -5 -28 -9 -51 -9 -25 0
-47 -6 -54 -15 -7 -8 -19 -15 -26 -15 -8 0 -19 -11 -24 -25 -9 -22 -15 -25
-63 -25 -44 0 -58 -4 -77 -25 -19 -20 -33 -25 -76 -25 -34 0 -56 -5 -64 -15
-7 -8 -20 -15 -29 -15 -21 0 -71 -50 -71 -71 0 -23 -33 -49 -62 -49 -34 0 -70
-44 -92 -112 -3 -12 -18 -18 -53 -20 -45 -3 -48 -5 -51 -33 -2 -16 -8 -34 -13
-39 -5 -6 -9 -29 -9 -52 0 -25 -6 -47 -15 -54 -9 -8 -15 -30 -15 -56 0 -24 -4
-44 -10 -44 -6 0 -10 -26 -10 -59 0 -40 -5 -63 -15 -71 -13 -11 -15 -56 -15
-294 l0 -282 -40 -39 -40 -39 0 -129 c0 -125 -1 -130 -25 -153 -22 -20 -25
-31 -25 -94 0 -40 -4 -70 -10 -70 -6 0 -10 -51 -10 -134 0 -79 4 -137 10 -141
6 -4 10 -61 10 -139 0 -107 3 -136 15 -146 8 -7 15 -21 15 -31 0 -11 5 -19 10
-19 6 0 10 -16 10 -35 0 -22 6 -38 15 -41 10 -4 15 -20 15 -48 0 -36 6 -48 40
-81 22 -21 40 -47 40 -57 0 -11 7 -18 20 -18 11 0 23 -7 26 -15 4 -8 12 -15
20 -15 8 0 22 -4 32 -9 9 -5 25 -12 35 -15 10 -3 17 -15 17 -31 0 -20 5 -25
24 -25 14 0 28 -4 31 -10 3 -5 30 -10 60 -10 30 0 57 -4 60 -10 4 -6 75 -10
180 -10 105 0 176 4 180 10 3 6 21 10 40 10 20 0 35 6 39 15 4 11 21 15 66 15
33 0 60 4 60 10 0 6 8 10 19 10 10 0 24 7 31 15 7 8 25 15 41 15 15 0 31 5 34
10 3 6 21 10 40 10 20 0 35 6 39 15 3 8 14 15 25 15 11 0 23 5 26 10 3 6 15
10 26 10 11 0 22 7 25 15 4 8 14 15 24 15 10 0 23 7 30 15 7 8 21 15 31 15 11
0 19 5 19 10 0 6 8 10 19 10 10 0 24 7 31 15 7 8 19 15 27 15 7 0 26 11 41 25
15 14 36 25 48 25 23 0 80 26 89 41 4 5 14 9 24 9 10 0 28 11 41 25 13 14 29
25 35 25 23 0 75 32 107 66 18 19 40 34 49 34 9 0 22 7 29 15 7 8 18 15 25 15
7 0 23 11 36 25 13 13 32 25 41 25 9 0 20 5 23 10 3 6 14 10 25 10 10 0 20 7
24 15 3 8 14 15 24 15 11 0 25 7 32 15 7 8 18 15 25 15 7 0 23 11 36 25 13 13
31 25 39 25 9 0 38 23 65 50 27 28 57 50 67 50 10 0 18 5 18 10 0 6 8 10 18
10 10 0 31 14 47 30 18 19 39 30 56 30 15 0 31 5 34 10 3 6 15 10 25 10 10 0
27 11 38 25 11 14 27 25 35 25 8 0 20 7 27 15 7 8 28 15 46 15 19 0 34 5 34
10 0 6 8 10 19 10 10 0 24 7 31 15 7 8 25 15 41 15 15 0 31 5 34 10 3 6 19 10
34 10 16 0 34 7 41 15 7 8 20 15 30 15 10 0 23 7 30 15 7 8 25 15 41 15 15 0
31 5 34 10 3 6 14 10 25 10 10 0 20 7 24 15 3 9 18 15 38 15 24 0 39 7 52 25
15 20 28 25 61 25 31 0 47 6 65 25 18 19 34 25 65 25 31 0 47 6 65 25 13 14
31 25 41 25 9 0 19 7 23 15 3 9 18 15 38 15 24 0 39 7 52 25 16 22 27 25 77
25 52 0 58 2 61 23 3 20 9 22 66 25 34 2 62 7 62 12 0 6 8 10 19 10 10 0 24 7
31 15 9 11 33 15 91 15 43 0 81 5 84 10 4 6 127 10 335 10 208 0 331 -4 335
-10 3 -5 22 -10 41 -10 19 0 34 5 34 10 0 6 40 10 99 10 56 0 103 -4 106 -10
3 -5 33 -10 65 -10 32 0 62 5 65 10 3 6 38 10 76 10 53 0 71 4 75 15 5 11 22
15 64 15 33 0 62 5 65 10 3 6 30 10 59 10 35 0 58 5 66 15 16 20 100 21 100 1
0 -15 46 -11 56 5 3 5 29 9 59 9 30 0 56 4 59 9 4 5 24 12 46 16 22 4 40 11
40 16 0 5 15 9 34 9 18 0 39 7 46 15 7 8 25 15 41 15 15 0 31 5 34 10 3 6 26
10 50 10 29 0 45 5 49 15 4 10 20 15 50 15 25 0 48 5 51 10 4 6 62 10 141 10
110 0 136 3 140 15 5 11 22 15 63 15 31 0 61 4 67 10 5 5 87 12 182 16 95 4
175 11 178 16 3 4 81 8 173 8 138 0 171 3 181 15 10 12 45 15 196 15 111 0
185 4 189 10 4 6 53 10 115 10 87 0 109 3 114 15 4 11 21 15 66 15 33 0 60 4
60 10 0 6 37 10 90 10 l90 0 0 705 0 705 -25 0 c-14 0 -25 5 -25 10 0 6 -31
10 -74 10 -56 0 -75 4 -80 15 -4 13 -35 15 -189 15 -152 0 -187 3 -197 15 -8
10 -30 15 -64 15 -44 0 -53 3 -61 23 -9 20 -18 22 -90 25 -44 2 -84 7 -89 12
-6 6 -40 10 -77 10 -45 0 -70 5 -78 14 -9 11 -44 14 -144 15 -79 1 -133 5
-135 11 -5 13 -245 13 -258 0 -5 -5 -56 -11 -114 -12 l-105 -3 -5 -60 -5 -60
-60 -5 c-60 -5 -60 -5 -65 -40 -4 -31 -9 -36 -40 -40 -31 -4 -36 -9 -40 -40
-5 -34 -7 -35 -52 -38 -39 -3 -47 -6 -50 -25 -3 -21 -8 -22 -98 -22 -89 0 -96
1 -105 23 -6 14 -18 22 -36 22 -28 0 -69 37 -69 62 0 10 -10 18 -22 20 -18 2
-24 11 -28 38 -4 27 -10 36 -27 38 -22 3 -23 7 -23 102 0 95 -1 99 -22 102
-21 3 -23 9 -26 86 -3 87 -17 116 -59 124 -10 2 -19 13 -21 26 -2 12 -7 22
-12 22 -5 0 -10 17 -12 37 -2 29 -8 39 -23 41 -11 2 -28 11 -37 20 -17 14 -18
13 -18 -10 0 -14 7 -31 15 -38 8 -7 15 -25 15 -41 0 -15 5 -31 10 -34 18 -11
10 -26 -12 -23 -18 2 -24 11 -26 34 -2 17 -14 42 -28 55 -13 12 -24 30 -24 40
0 9 -7 19 -15 23 -8 3 -15 14 -15 25 0 11 -4 23 -10 26 -5 3 -10 13 -10 21 0
8 -11 25 -25 38 -21 19 -25 32 -25 78 0 37 -5 60 -15 68 -12 10 -15 42 -15
170 0 131 3 159 15 164 8 3 15 15 15 26 0 16 7 20 30 20 17 0 39 9 50 20 11
11 20 33 20 50 0 17 5 30 10 30 6 0 10 20 10 44 0 26 6 48 14 56 8 6 16 33 18
58 3 40 6 47 25 50 19 3 22 11 25 50 l3 47 73 3 c69 3 72 4 72 27 l0 25 -485
0 c-324 0 -485 -3 -485 -10z m898 -1366 c-10 -10 -28 6 -28 24 0 15 1 15 17
-1 9 -9 14 -19 11 -23z"/>
<path d="M38020 29381 c0 -23 5 -41 10 -41 6 0 10 -20 10 -44 0 -26 6 -48 15
-56 13 -11 15 -6 15 38 0 32 -5 54 -15 62 -8 7 -15 25 -15 41 0 15 -4 31 -10
34 -6 4 -10 -10 -10 -34z"/>
<path d="M38070 29192 c0 -17 6 -32 15 -36 8 -3 15 -14 15 -25 0 -11 5 -23 10
-26 6 -3 10 5 10 19 0 14 -4 28 -10 31 -5 3 -10 14 -10 24 0 10 -7 24 -15 31
-13 11 -15 8 -15 -18z"/>
<path d="M38142 24235 c-7 -8 -25 -15 -41 -15 -16 0 -36 -9 -47 -21 -10 -12
-27 -24 -37 -28 -24 -9 -257 -240 -257 -255 0 -16 -162 -176 -178 -176 -7 0
-17 -11 -22 -25 -5 -14 -15 -25 -23 -25 -7 0 -31 -18 -52 -40 -21 -22 -47 -40
-56 -40 -10 0 -21 -4 -24 -10 -3 -5 -15 -10 -26 -10 -11 0 -22 -7 -25 -15 -4
-9 -19 -15 -40 -15 -19 0 -34 -4 -34 -8 0 -5 -17 -15 -37 -24 -21 -8 -45 -18
-53 -22 -8 -3 -28 -15 -45 -25 -20 -13 -49 -20 -86 -20 -41 -1 -58 -5 -63 -16
-5 -13 -46 -15 -289 -15 -241 0 -286 2 -297 15 -9 11 -35 15 -106 15 -51 0
-95 4 -98 9 -3 4 -28 11 -56 15 -27 4 -50 11 -50 16 0 6 -46 10 -109 10 -63 0
-112 4 -116 10 -4 6 -58 10 -130 10 -72 0 -126 -4 -130 -10 -3 -5 -30 -10 -59
-10 -35 0 -58 -5 -66 -15 -7 -8 -28 -15 -46 -15 -19 0 -34 -4 -34 -10 0 -5 -8
-10 -19 -10 -10 0 -24 -7 -31 -15 -7 -8 -24 -15 -39 -15 -20 0 -54 -28 -151
-125 -68 -68 -133 -125 -144 -127 -13 -2 -22 -12 -24 -25 -2 -14 -10 -23 -20
-23 -20 0 -52 -33 -52 -53 0 -8 -11 -24 -25 -37 -14 -13 -25 -31 -25 -40 0
-10 -11 -26 -25 -36 -20 -15 -25 -28 -25 -60 0 -25 -6 -47 -15 -54 -11 -9 -15
-33 -15 -92 0 -79 0 -79 39 -116 33 -31 40 -45 43 -82 2 -35 7 -46 22 -48 29
-6 44 -25 48 -63 2 -25 8 -35 23 -37 28 -6 55 -32 55 -54 0 -11 7 -18 18 -18
22 0 259 -238 264 -265 2 -11 12 -21 24 -23 25 -4 121 -100 126 -127 2 -11 14
-22 28 -25 16 -4 26 -14 28 -28 2 -13 10 -22 20 -22 20 0 52 -33 52 -53 0 -7
18 -31 40 -52 22 -21 40 -45 40 -53 0 -18 25 -42 43 -42 8 0 20 -7 27 -15 7
-8 19 -15 27 -15 20 0 103 -85 103 -105 0 -9 8 -18 18 -21 17 -6 65 -28 92
-43 45 -24 61 -31 75 -31 9 0 18 -7 21 -15 4 -9 19 -15 36 -15 16 0 36 -7 44
-15 10 -10 35 -15 69 -15 30 0 57 -4 60 -10 4 -6 82 -10 200 -10 118 0 196 4
200 10 3 6 26 10 49 10 27 0 48 6 56 15 7 9 29 15 53 15 30 0 46 6 63 25 17
18 33 25 62 25 23 0 45 6 52 15 7 8 21 15 31 15 10 0 21 5 24 10 3 6 14 10 25
10 10 0 20 7 24 15 3 8 14 15 24 15 10 0 29 11 42 25 13 14 32 25 42 25 10 0
18 5 18 10 0 6 8 10 18 10 10 0 31 14 47 30 16 17 35 30 43 30 18 0 39 22 44
46 2 10 12 20 23 22 11 2 29 14 40 27 11 12 29 24 40 26 11 3 21 12 23 23 5
22 37 56 55 56 7 0 57 45 112 100 54 54 108 100 119 102 12 2 23 13 26 28 3
14 14 27 25 29 11 2 53 37 94 77 41 41 79 74 85 74 6 0 41 29 76 65 35 36 71
65 80 65 9 0 49 34 90 75 41 41 82 75 92 75 11 0 18 7 18 18 0 10 11 29 25 42
14 13 25 31 25 40 0 8 23 38 50 65 28 27 50 54 50 61 0 6 7 17 15 24 8 7 15
20 15 30 0 10 7 23 15 30 8 7 15 25 15 41 0 15 5 31 10 34 6 3 10 26 10 49 0
27 6 48 15 56 12 10 15 47 15 215 0 168 -3 205 -15 215 -11 9 -15 33 -15 91 0
43 -4 81 -10 84 -5 3 -10 30 -10 59 0 35 -5 58 -15 66 -9 7 -15 29 -15 55 0
26 -6 48 -15 55 -8 7 -15 21 -15 31 0 11 -4 19 -10 19 -5 0 -10 16 -10 35 0
22 -6 38 -15 41 -8 4 -15 14 -15 24 0 11 -4 22 -10 25 -5 3 -10 14 -10 23 0
22 -130 152 -152 152 -8 0 -21 7 -28 15 -17 21 -140 20 -158 0z"/>
<path d="M40420 20150 c0 -6 -68 -10 -184 -10 -151 0 -186 -3 -196 -15 -7 -8
-29 -15 -50 -15 -36 0 -94 -22 -105 -41 -4 -5 -21 -9 -40 -9 -20 0 -35 -6 -39
-15 -3 -8 -14 -15 -25 -15 -11 0 -23 -4 -26 -10 -3 -5 -15 -10 -26 -10 -11 0
-22 -7 -25 -15 -4 -8 -14 -15 -24 -15 -11 0 -22 -4 -25 -10 -3 -5 -15 -10 -26
-10 -11 0 -22 -7 -25 -15 -4 -8 -14 -15 -24 -15 -11 0 -22 -4 -25 -10 -3 -5
-14 -10 -24 -10 -10 0 -24 -7 -31 -15 -7 -8 -21 -15 -31 -15 -11 0 -19 -4 -19
-10 0 -5 -13 -10 -29 -10 -16 0 -34 -7 -41 -15 -7 -8 -20 -15 -29 -15 -10 0
-28 -11 -41 -25 -14 -15 -35 -25 -51 -25 -14 0 -32 -7 -39 -15 -7 -8 -21 -15
-31 -15 -11 0 -19 -4 -19 -10 0 -5 -15 -10 -34 -10 -18 0 -39 -7 -46 -15 -7
-8 -21 -15 -31 -15 -11 0 -19 -4 -19 -10 0 -5 -16 -10 -35 -10 -22 0 -38 -6
-41 -15 -4 -9 -19 -15 -39 -15 -19 0 -37 -4 -40 -10 -3 -5 -35 -10 -69 -10
-44 0 -67 -5 -76 -15 -8 -10 -31 -15 -70 -15 -42 0 -59 -4 -64 -15 -5 -13
-131 -15 -1054 -15 -921 0 -1051 2 -1062 15 -14 17 -46 20 -55 5 -4 -6 -70
-10 -166 -10 -133 0 -161 -3 -165 -15 -5 -12 -26 -15 -99 -15 -70 0 -96 -4
-105 -15 -8 -10 -31 -15 -71 -15 -33 0 -59 -4 -59 -10 0 -5 -16 -10 -35 -10
-22 0 -38 -6 -41 -15 -4 -8 -18 -15 -34 -15 -28 0 -85 -24 -95 -41 -4 -5 -19
-9 -34 -9 -20 0 -42 -13 -70 -40 -22 -22 -47 -40 -54 -40 -8 0 -24 -11 -37
-25 -13 -14 -29 -25 -37 -25 -7 0 -29 -16 -49 -35 -19 -19 -41 -35 -47 -35
-19 0 -517 -503 -517 -522 0 -11 -7 -18 -18 -18 -9 0 -69 -52 -132 -115 -63
-63 -121 -115 -130 -115 -8 -1 -37 -23 -65 -50 -27 -28 -55 -50 -61 -50 -6 0
-21 -11 -34 -25 -13 -14 -31 -25 -41 -25 -9 0 -22 -7 -29 -15 -7 -8 -18 -15
-24 -15 -7 0 -30 -18 -51 -40 -21 -22 -46 -40 -55 -41 -8 0 -28 -9 -45 -20
-16 -10 -37 -22 -45 -25 -54 -22 -78 -35 -97 -53 -12 -12 -29 -21 -36 -21 -8
0 -20 -7 -27 -15 -7 -8 -20 -15 -29 -16 -9 0 -29 -9 -46 -20 -16 -10 -37 -22
-45 -25 -8 -3 -19 -8 -25 -10 -5 -2 -23 -13 -40 -23 -16 -11 -36 -20 -44 -20
-7 -1 -26 -12 -43 -26 -16 -14 -40 -25 -53 -25 -12 0 -28 -7 -35 -15 -7 -8
-18 -15 -25 -15 -7 0 -24 -11 -39 -25 -15 -14 -33 -25 -39 -25 -7 0 -35 -22
-62 -50 -27 -27 -56 -50 -65 -50 -20 0 -310 -290 -310 -311 0 -8 -16 -30 -35
-49 -19 -19 -35 -41 -35 -50 0 -9 -11 -27 -25 -40 -14 -13 -25 -28 -25 -34 0
-6 -6 -22 -14 -36 -7 -14 -30 -54 -50 -90 -19 -36 -40 -74 -45 -85 -5 -12 -16
-27 -25 -34 -9 -7 -16 -21 -16 -31 0 -9 -9 -25 -20 -35 -11 -10 -20 -23 -20
-29 0 -7 -9 -29 -20 -51 -11 -22 -20 -43 -20 -48 0 -5 -12 -24 -27 -43 -56
-68 -74 -94 -93 -136 -10 -24 -46 -70 -79 -103 -34 -33 -61 -67 -61 -77 0 -10
-7 -18 -15 -18 -8 0 -15 -6 -15 -14 0 -7 -7 -20 -16 -27 -9 -7 -20 -24 -25
-36 -5 -13 -19 -27 -31 -32 -13 -5 -43 -30 -68 -55 -24 -25 -51 -46 -60 -46
-9 0 -27 -11 -40 -25 -13 -14 -29 -25 -36 -25 -6 0 -17 -7 -24 -15 -7 -8 -20
-15 -29 -15 -10 0 -28 -11 -41 -25 -14 -15 -35 -25 -51 -25 -15 0 -31 -4 -34
-10 -3 -5 -19 -10 -34 -10 -16 0 -34 -7 -41 -15 -7 -8 -25 -15 -41 -15 -15 0
-31 -4 -34 -10 -3 -5 -30 -10 -59 -10 -35 0 -58 -5 -66 -15 -9 -11 -32 -15
-79 -15 -37 0 -72 -5 -78 -11 -13 -13 -390 -6 -578 11 -71 6 -149 11 -172 11
-23 -1 -44 3 -48 8 -8 14 -566 13 -582 -1 -8 -7 -49 -8 -115 -4 -278 16 -378
18 -391 8 -7 -6 -57 -14 -110 -18 -54 -4 -100 -11 -103 -15 -3 -5 -33 -9 -66
-9 -55 0 -174 -28 -220 -51 -10 -5 -28 -9 -40 -10 -13 0 -36 -9 -53 -20 -16
-10 -37 -22 -45 -25 -53 -22 -80 -36 -85 -44 -3 -6 -21 -10 -38 -11 -18 0 -45
-9 -62 -20 -16 -10 -37 -22 -45 -25 -25 -10 -74 -34 -90 -44 -8 -5 -22 -11
-30 -14 -8 -4 -28 -15 -45 -25 -16 -11 -37 -20 -46 -20 -9 -1 -22 -8 -29 -16
-7 -8 -25 -15 -41 -15 -15 0 -31 -4 -34 -10 -3 -5 -17 -10 -29 -10 -13 0 -37
-7 -52 -15 -16 -8 -37 -15 -46 -15 -9 0 -20 -4 -23 -10 -3 -5 -19 -10 -34 -10
-16 0 -34 -7 -41 -15 -7 -8 -25 -15 -41 -15 -15 0 -31 -4 -34 -10 -3 -5 -26
-10 -49 -10 -27 0 -48 -6 -56 -15 -7 -9 -29 -15 -54 -15 -23 0 -46 -4 -52 -10
-5 -5 -42 -12 -82 -16 -40 -4 -75 -11 -78 -15 -3 -5 -63 -9 -133 -9 -102 0
-131 -3 -141 -15 -10 -12 -40 -15 -146 -15 -83 0 -134 -4 -134 -10 0 -6 -26
-10 -59 -10 -40 0 -63 -5 -71 -15 -8 -9 -30 -15 -56 -15 -24 0 -44 -4 -44 -10
0 -5 -8 -10 -19 -10 -10 0 -24 -7 -31 -15 -7 -8 -25 -15 -41 -15 -15 0 -31 -4
-34 -10 -3 -5 -14 -10 -24 -10 -9 0 -30 -13 -46 -30 -16 -16 -34 -30 -41 -30
-6 0 -22 -11 -35 -25 -13 -13 -31 -25 -40 -25 -8 0 -26 -11 -39 -25 -13 -14
-30 -25 -37 -25 -8 0 -24 -9 -36 -21 -12 -11 -32 -25 -44 -30 -14 -5 -23 -17
-23 -29 0 -13 -7 -20 -18 -20 -10 0 -29 -11 -42 -25 -13 -14 -31 -25 -41 -25
-9 0 -22 -7 -29 -15 -7 -8 -24 -15 -37 -15 -17 0 -41 -17 -74 -50 -27 -27 -55
-50 -62 -50 -7 0 -35 -22 -62 -50 -27 -27 -57 -50 -65 -50 -9 0 -27 -11 -40
-25 -13 -14 -29 -25 -35 -25 -6 0 -29 -18 -50 -40 -21 -22 -44 -40 -50 -40
-18 0 -68 -27 -92 -50 -12 -11 -35 -20 -51 -20 -16 0 -35 -7 -42 -15 -7 -8
-34 -15 -68 -17 -50 -3 -57 -6 -60 -25 -3 -19 -10 -23 -37 -23 -20 0 -35 -6
-39 -15 -4 -13 -35 -15 -190 -15 -112 0 -187 -4 -191 -10 -3 -5 -28 -10 -56
-10 -27 0 -49 5 -49 10 0 6 -138 10 -394 10 -253 0 -397 -4 -401 -10 -4 -6
-68 -10 -159 -10 -124 0 -156 -3 -166 -15 -7 -8 -25 -15 -41 -15 -15 0 -31 -4
-34 -10 -3 -5 -19 -10 -34 -10 -16 0 -34 -7 -41 -15 -7 -8 -27 -15 -45 -15
-20 0 -35 -6 -39 -15 -3 -8 -14 -15 -24 -15 -10 0 -29 -11 -42 -25 -13 -14
-30 -25 -38 -25 -8 0 -25 -11 -38 -25 -13 -14 -29 -25 -36 -25 -17 0 -258
-241 -258 -258 0 -7 -11 -17 -25 -22 -14 -5 -25 -17 -25 -25 0 -9 -16 -31 -35
-49 -19 -19 -35 -40 -35 -48 0 -8 -18 -32 -40 -53 -22 -21 -40 -45 -40 -52 0
-7 -18 -31 -40 -53 -22 -22 -40 -47 -40 -55 0 -9 -11 -20 -25 -25 -18 -7 -25
-17 -25 -37 0 -21 -16 -44 -65 -92 -36 -35 -65 -69 -65 -75 0 -7 -22 -34 -50
-61 -27 -27 -50 -57 -50 -65 0 -9 -11 -27 -25 -40 -14 -13 -25 -28 -25 -35 0
-6 -18 -28 -40 -50 -21 -22 -39 -48 -40 -57 0 -9 -10 -18 -22 -20 -14 -2 -24
-11 -26 -24 -2 -12 -19 -36 -38 -54 -18 -19 -34 -42 -34 -52 0 -10 -7 -21 -15
-24 -8 -4 -15 -14 -15 -23 0 -10 -11 -28 -25 -41 -14 -13 -25 -31 -25 -41 0
-9 -7 -22 -15 -29 -8 -7 -15 -23 -15 -37 0 -13 -11 -36 -25 -51 -25 -27 -25
-28 -25 -212 0 -184 0 -185 25 -212 14 -15 25 -34 25 -41 0 -8 7 -20 15 -27 8
-7 15 -19 15 -27 0 -8 16 -30 35 -50 19 -20 35 -40 35 -44 0 -4 12 -9 28 -11
19 -2 28 -9 30 -25 3 -19 10 -23 38 -23 19 0 34 -4 34 -8 0 -5 18 -16 39 -26
34 -14 63 -16 203 -13 90 3 188 9 218 15 30 5 105 19 165 30 61 11 148 26 195
32 129 18 464 24 577 11 127 -15 315 -51 328 -62 5 -5 18 -9 29 -9 21 0 80
-17 108 -31 10 -5 25 -9 33 -9 15 0 273 -82 310 -99 61 -28 94 -41 99 -41 3 0
30 -11 60 -25 30 -14 68 -25 85 -25 16 0 33 -4 36 -10 3 -5 14 -10 23 -10 9 0
30 -7 46 -15 15 -8 39 -15 52 -15 12 0 26 -4 29 -10 3 -5 18 -10 32 -10 15 0
51 -7 82 -16 99 -28 124 -33 246 -50 66 -9 124 -18 129 -21 5 -3 244 -9 532
-13 334 -4 528 -11 536 -17 7 -6 55 -13 106 -16 52 -2 99 -10 105 -16 6 -6 41
-11 78 -11 37 0 71 -4 74 -10 3 -5 19 -10 35 -10 16 0 31 -4 34 -9 3 -5 33
-12 66 -16 33 -4 63 -11 66 -16 3 -5 18 -9 33 -9 15 0 32 -5 38 -11 7 -7 42
-16 80 -20 112 -14 142 -20 154 -35 6 -8 17 -14 24 -14 7 0 26 -7 41 -15 16
-8 36 -15 44 -16 8 0 29 -9 45 -20 17 -10 37 -22 45 -25 53 -22 80 -36 85 -44
3 -6 14 -10 24 -10 10 0 28 -11 41 -25 13 -14 31 -25 40 -25 9 0 25 -9 35 -20
17 -19 54 -39 97 -53 9 -3 18 -16 20 -29 2 -14 11 -24 24 -26 12 -2 36 -19 54
-38 19 -18 39 -34 45 -34 14 0 255 -242 255 -257 0 -7 11 -24 25 -39 14 -15
25 -32 25 -39 0 -6 11 -22 25 -35 14 -13 25 -29 25 -36 0 -6 7 -17 16 -25 15
-12 35 -47 68 -116 9 -17 21 -35 26 -38 6 -4 16 -17 21 -28 5 -12 20 -40 33
-62 25 -42 123 -235 136 -270 4 -11 15 -36 23 -55 35 -79 72 -213 84 -300 2
-19 10 -46 16 -59 18 -36 16 -527 -2 -606 -7 -33 -17 -69 -21 -80 -5 -11 -21
-58 -35 -105 -15 -47 -33 -92 -41 -101 -8 -8 -14 -23 -14 -31 0 -9 -7 -21 -15
-28 -8 -7 -15 -18 -15 -24 0 -7 -16 -27 -35 -46 -19 -19 -35 -41 -35 -50 0
-21 -161 -180 -182 -180 -9 0 -19 -4 -23 -9 -8 -14 -94 -71 -106 -71 -5 0 -28
-9 -52 -19 -78 -36 -119 -51 -141 -51 -12 0 -26 -4 -32 -10 -13 -13 -88 -29
-189 -41 -44 -5 -93 -13 -110 -18 -60 -19 -513 2 -625 29 -112 27 -274 35
-732 35 -368 0 -480 -3 -490 -12 -9 -10 -62 -13 -194 -13 -111 0 -185 -4 -189
-10 -4 -6 -65 -10 -149 -10 -115 0 -146 -3 -156 -15 -10 -12 -38 -15 -130 -15
-92 0 -120 -3 -130 -15 -10 -12 -38 -15 -131 -15 -68 0 -120 -4 -124 -10 -4
-6 -75 -10 -180 -10 -144 0 -174 2 -179 15 -4 10 -20 15 -50 15 -25 0 -48 5
-51 10 -3 6 -21 10 -40 10 -20 0 -35 6 -39 15 -3 9 -19 15 -41 15 -19 0 -35 5
-35 10 0 6 -8 10 -18 10 -10 0 -29 11 -41 24 -13 14 -33 26 -45 28 -13 2 -22
12 -24 26 -2 13 -10 22 -20 22 -20 0 -52 33 -52 53 0 7 -29 42 -65 77 -47 47
-65 72 -65 91 0 28 -24 55 -55 61 -16 2 -21 13 -25 53 -4 39 -9 51 -24 53 -29
6 -44 25 -48 63 -2 26 -8 35 -24 37 -12 2 -32 14 -45 28 -12 13 -30 24 -40 24
-11 0 -19 9 -21 22 -2 13 -11 24 -22 26 -10 2 -29 15 -41 28 -12 13 -29 24
-37 24 -8 0 -25 11 -38 25 -13 14 -32 25 -42 25 -10 0 -21 7 -24 15 -4 9 -19
15 -39 15 -19 0 -37 5 -40 10 -3 5 -16 10 -29 10 -12 0 -31 7 -42 15 -10 8
-38 15 -60 15 -28 0 -44 5 -48 15 -8 22 -208 22 -226 0 -7 -8 -25 -15 -40 -15
-15 0 -33 -7 -40 -15 -7 -8 -21 -15 -31 -15 -11 0 -19 -9 -21 -22 -2 -18 -11
-24 -38 -28 -27 -4 -36 -10 -38 -27 -2 -14 -10 -23 -21 -23 -9 0 -32 -16 -51
-34 -18 -19 -42 -36 -54 -38 -12 -2 -22 -13 -26 -28 -4 -16 -14 -26 -28 -28
-14 -2 -22 -10 -22 -22 0 -10 -5 -22 -11 -25 -5 -4 -14 -18 -19 -31 -6 -14
-18 -24 -30 -24 -15 0 -20 -7 -20 -25 0 -14 -4 -25 -10 -25 -5 0 -10 -8 -10
-19 0 -10 -7 -24 -15 -31 -8 -7 -15 -21 -15 -31 0 -11 -4 -19 -10 -19 -5 0
-10 -12 -10 -28 0 -15 -10 -38 -23 -52 -23 -25 -57 -86 -57 -102 0 -5 -11 -19
-25 -32 -14 -13 -25 -30 -25 -38 0 -9 -7 -21 -15 -28 -8 -7 -15 -21 -15 -31 0
-11 -9 -19 -22 -21 -16 -2 -24 -11 -26 -28 -2 -14 -7 -34 -12 -45 -4 -11 -11
-28 -14 -37 -3 -10 -15 -18 -26 -18 -13 0 -20 -7 -20 -19 0 -10 -7 -24 -15
-31 -8 -7 -15 -19 -15 -27 0 -7 -11 -26 -25 -41 -14 -15 -25 -32 -25 -37 0 -6
-18 -29 -40 -50 -22 -21 -40 -47 -40 -56 0 -11 -9 -19 -22 -21 -13 -2 -24 -11
-26 -23 -5 -24 -235 -255 -255 -255 -8 0 -22 -10 -33 -21 -10 -12 -30 -25 -42
-30 -13 -5 -26 -18 -29 -29 -5 -19 -53 -50 -78 -50 -6 0 -22 -11 -35 -25 -13
-14 -31 -25 -41 -25 -10 0 -20 -4 -24 -9 -7 -12 -64 -41 -80 -41 -7 0 -18 -7
-25 -15 -7 -8 -22 -15 -35 -15 -24 0 -81 -26 -90 -41 -4 -5 -19 -9 -34 -9 -16
0 -34 -7 -41 -15 -7 -8 -21 -15 -31 -15 -10 0 -21 -4 -24 -10 -3 -5 -26 -10
-49 -10 -27 0 -48 -6 -56 -15 -7 -8 -25 -15 -41 -15 -15 0 -31 -5 -34 -10 -3
-6 -13 -10 -22 -10 -14 0 -66 -20 -105 -41 -10 -5 -33 -9 -52 -9 -18 0 -39 -7
-46 -15 -8 -9 -29 -15 -56 -15 -23 0 -46 -4 -49 -10 -3 -5 -24 -10 -45 -10
-21 0 -45 -7 -54 -15 -9 -9 -33 -15 -64 -15 -27 0 -63 -7 -78 -15 -16 -8 -55
-15 -86 -15 -32 0 -58 -4 -58 -10 0 -6 -30 -10 -69 -10 -49 0 -72 -4 -81 -15
-8 -10 -31 -15 -71 -15 -33 0 -59 -4 -59 -10 0 -5 -16 -10 -35 -10 -22 0 -38
-6 -41 -15 -5 -12 -25 -15 -89 -15 -46 0 -87 -4 -90 -10 -3 -6 -14 -10 -25
-10 -10 0 -20 -7 -24 -15 -3 -8 -14 -15 -25 -15 -11 0 -23 -4 -26 -10 -3 -5
-26 -10 -51 -10 -30 0 -46 -5 -50 -15 -4 -8 -14 -15 -24 -15 -10 0 -23 -7 -30
-15 -7 -8 -19 -15 -27 -15 -7 0 -26 -11 -41 -25 -15 -14 -32 -25 -38 -25 -6 0
-21 -11 -34 -25 -13 -14 -31 -25 -40 -25 -9 0 -27 -11 -40 -25 -13 -14 -29
-25 -35 -25 -7 0 -24 -11 -39 -25 -15 -14 -33 -25 -40 -25 -7 0 -23 -11 -36
-25 -13 -14 -31 -25 -41 -25 -9 0 -22 -7 -29 -15 -7 -8 -25 -15 -41 -15 -16 0
-29 -4 -29 -10 0 -5 -8 -10 -18 -10 -10 0 -29 -11 -42 -25 -13 -14 -31 -25
-40 -25 -9 0 -27 -11 -40 -25 -13 -14 -29 -25 -36 -25 -6 0 -17 -7 -24 -15 -7
-8 -20 -15 -29 -15 -10 0 -28 -11 -41 -25 -13 -14 -31 -25 -41 -25 -9 0 -19
-7 -23 -15 -3 -9 -19 -15 -38 -16 -18 0 -46 -9 -63 -20 -16 -10 -37 -22 -45
-25 -53 -22 -80 -36 -85 -44 -3 -6 -19 -10 -35 -10 -16 0 -32 -4 -35 -10 -3
-5 -14 -10 -24 -10 -10 0 -24 -7 -31 -15 -7 -8 -25 -15 -40 -15 -15 0 -33 -7
-40 -15 -7 -8 -25 -15 -41 -15 -15 0 -31 -5 -34 -10 -3 -6 -14 -10 -24 -10
-10 0 -24 -7 -31 -15 -7 -8 -25 -15 -41 -15 -15 0 -31 -4 -34 -10 -3 -6 -14
-10 -23 -10 -9 0 -30 -7 -46 -15 -15 -8 -37 -15 -47 -15 -11 0 -27 -4 -37 -9
-26 -14 -89 -41 -96 -41 -3 0 -30 -11 -60 -25 -30 -14 -61 -25 -69 -25 -8 0
-22 -9 -31 -19 -10 -11 -29 -22 -44 -26 -45 -11 -107 -43 -126 -64 -11 -12
-27 -21 -37 -21 -10 0 -21 -5 -24 -10 -3 -6 -18 -10 -32 -10 -14 0 -45 -13
-70 -30 -24 -16 -48 -30 -54 -30 -5 0 -27 -11 -49 -25 -22 -14 -43 -25 -47
-25 -8 0 -31 -11 -143 -66 -25 -12 -56 -25 -70 -29 -14 -4 -48 -18 -77 -31
-28 -13 -58 -24 -67 -24 -8 0 -18 -4 -21 -10 -3 -6 -13 -10 -22 -10 -8 0 -31
-7 -51 -16 -21 -9 -51 -23 -69 -30 -17 -8 -39 -14 -50 -14 -17 0 -82 -20 -128
-39 -37 -15 -200 -54 -265 -63 -36 -5 -139 -13 -230 -17 -91 -5 -222 -14 -290
-20 -69 -6 -152 -13 -185 -15 -73 -5 -174 -23 -197 -36 -10 -6 -28 -10 -42
-10 -13 0 -29 -7 -36 -15 -7 -8 -25 -15 -41 -15 -15 0 -31 -4 -34 -10 -3 -5
-14 -10 -24 -10 -10 0 -28 -11 -41 -25 -13 -14 -29 -25 -35 -25 -6 0 -29 -18
-50 -40 -21 -22 -46 -40 -54 -40 -21 0 -131 -110 -131 -131 0 -9 -9 -24 -20
-34 -18 -17 -31 -38 -54 -95 -3 -8 -15 -28 -25 -45 -11 -16 -20 -44 -20 -61
-1 -17 -8 -37 -16 -44 -22 -18 -22 -362 0 -380 8 -7 15 -25 15 -41 0 -15 4
-31 10 -34 6 -3 10 -14 10 -24 0 -10 7 -24 15 -31 8 -7 15 -19 15 -27 0 -8 15
-30 34 -49 22 -22 36 -48 38 -67 2 -25 8 -33 26 -35 13 -2 27 -14 32 -26 10
-28 156 -176 173 -176 7 0 42 -29 77 -65 35 -36 72 -65 81 -65 10 0 26 -11 37
-25 11 -14 26 -25 34 -25 8 0 32 -18 53 -40 21 -22 46 -40 55 -40 9 0 27 -11
40 -25 14 -14 35 -25 50 -25 15 0 36 -11 50 -25 13 -14 30 -25 37 -25 7 0 18
-11 23 -25 7 -19 17 -25 39 -25 15 0 34 -7 41 -15 7 -8 18 -15 25 -15 7 0 23
-11 36 -25 13 -13 31 -25 40 -25 10 0 20 -11 23 -25 5 -21 12 -25 41 -25 19 0
35 -4 35 -10 0 -5 28 -10 63 -12 56 -3 62 -5 65 -25 2 -13 10 -23 19 -23 8 0
29 -6 46 -14 18 -8 39 -17 47 -20 8 -3 29 -15 45 -25 17 -11 43 -20 58 -20 16
-1 38 -11 51 -26 15 -17 34 -25 55 -25 19 0 34 -6 37 -15 4 -9 19 -15 40 -15
19 0 34 -4 34 -10 0 -5 8 -10 19 -10 10 0 24 -7 31 -15 7 -8 27 -15 45 -15 20
0 35 -6 39 -15 3 -9 19 -15 41 -15 28 0 35 -4 35 -20 0 -15 7 -20 29 -20 16 0
34 -7 41 -15 8 -10 31 -15 70 -15 42 0 59 -4 64 -15 3 -9 19 -15 41 -15 19 0
35 -4 35 -10 0 -5 20 -10 44 -10 26 0 48 -6 56 -15 9 -11 35 -15 106 -15 51 0
96 -4 99 -10 8 -13 252 -13 260 0 3 6 48 10 100 10 73 0 94 3 99 15 4 12 24
15 90 15 47 0 88 5 91 10 3 6 49 10 101 10 75 0 96 3 100 15 5 11 23 15 79 15
56 0 74 4 79 15 4 12 25 15 100 15 52 0 98 4 101 10 4 6 75 10 180 10 152 0
174 2 179 17 6 15 39 16 393 10 248 -4 390 -10 396 -16 6 -6 52 -11 103 -11
51 0 96 -4 99 -10 3 -6 32 -10 63 -10 31 0 70 -7 86 -15 19 -10 58 -15 116
-15 66 0 91 -4 100 -15 8 -10 31 -15 66 -15 29 0 56 -4 59 -10 3 -5 26 -10 49
-10 27 0 48 -6 56 -15 8 -10 31 -15 66 -15 29 0 56 -4 59 -10 3 -5 38 -10 76
-10 53 0 71 -4 75 -15 4 -8 18 -15 34 -15 15 0 41 -7 56 -15 16 -8 36 -15 45
-15 9 0 24 -9 34 -20 10 -11 25 -20 34 -20 9 0 29 -7 45 -15 15 -8 46 -15 67
-15 26 0 42 -5 45 -15 4 -8 14 -15 23 -15 9 0 21 -4 27 -9 5 -5 23 -11 39 -13
20 -2 33 -11 40 -25 6 -15 18 -23 36 -23 14 0 36 -11 49 -25 13 -14 31 -25 41
-25 10 0 22 -6 26 -14 4 -8 17 -15 28 -17 12 -3 21 -14 23 -27 2 -13 10 -22
21 -22 22 0 61 -41 61 -63 0 -10 8 -17 18 -17 23 0 52 -30 52 -53 0 -10 8 -17
20 -17 12 0 24 -9 29 -23 5 -13 25 -39 45 -58 33 -31 36 -38 36 -91 l0 -57 38
-3 37 -3 3 -77 c3 -70 5 -77 25 -80 15 -2 23 -11 25 -28 2 -14 7 -34 12 -45 4
-11 11 -28 14 -37 3 -10 15 -18 26 -18 18 0 20 -6 20 -71 0 -69 -1 -73 -35
-106 -29 -29 -35 -41 -35 -77 0 -30 -5 -46 -15 -50 -9 -3 -15 -18 -15 -40 0
-28 -4 -35 -22 -38 -15 -2 -24 -11 -26 -25 -2 -14 -11 -23 -25 -25 -14 -2 -23
-11 -25 -26 -2 -12 -7 -22 -12 -22 -5 0 -10 -17 -12 -37 -3 -36 -5 -38 -40
-41 -21 -2 -38 -7 -38 -12 0 -5 -10 -10 -22 -12 -18 -2 -24 -11 -28 -38 -4
-31 -9 -36 -40 -40 -27 -4 -36 -10 -38 -27 -3 -19 -10 -23 -38 -23 -24 0 -36
-5 -40 -17 -14 -44 -17 -47 -86 -78 -21 -9 -38 -21 -38 -28 -1 -18 -36 -57
-53 -57 -8 0 -20 -7 -27 -15 -7 -8 -20 -15 -29 -15 -9 0 -21 -4 -26 -9 -6 -5
-23 -11 -40 -13 -22 -2 -31 -9 -33 -25 -3 -19 -10 -23 -37 -23 -27 0 -34 -4
-37 -22 -2 -18 -11 -24 -35 -26 -17 -2 -37 -10 -43 -18 -8 -8 -30 -14 -56 -14
-23 0 -46 -4 -49 -10 -3 -5 -19 -10 -34 -10 -16 0 -34 -7 -41 -15 -9 -11 -33
-15 -88 -15 -52 0 -80 -5 -91 -14 -19 -17 -88 -18 -436 -10 -121 4 -224 10
-229 15 -6 5 -29 9 -52 9 -24 0 -46 5 -49 10 -4 6 -70 10 -166 10 -133 0 -161
3 -165 15 -5 12 -33 15 -169 15 -136 0 -164 3 -169 15 -4 10 -20 15 -50 15
-25 0 -48 5 -51 10 -3 6 -41 10 -84 10 -58 0 -82 4 -91 15 -8 10 -31 15 -71
15 -33 0 -59 4 -59 10 0 6 -16 10 -35 10 -22 0 -38 6 -41 15 -5 11 -24 15 -80
15 -43 0 -74 4 -74 10 0 6 -20 10 -44 10 -26 0 -48 6 -56 15 -7 8 -25 15 -41
15 -15 0 -31 5 -34 10 -3 6 -19 10 -34 10 -16 0 -34 7 -41 15 -7 8 -27 15 -45
15 -20 0 -35 6 -39 15 -3 9 -18 15 -40 15 -28 0 -35 4 -38 23 -3 21 -8 22
-100 25 l-97 3 -3 32 -3 32 -95 3 c-87 3 -97 5 -116 27 -12 14 -28 25 -36 25
-9 0 -21 7 -28 15 -10 12 -38 15 -130 15 -92 0 -120 3 -130 15 -16 20 -84 20
-100 0 -10 -12 -39 -15 -145 -15 -109 0 -134 -3 -139 -15 -4 -12 -28 -15 -128
-15 -120 0 -124 -1 -142 -25 -15 -20 -28 -25 -62 -25 -23 0 -46 -5 -49 -10 -3
-6 -44 -10 -90 -10 -64 0 -84 -3 -89 -15 -4 -10 -20 -15 -50 -15 -25 0 -48 -4
-51 -10 -3 -6 -37 -10 -74 -10 -48 0 -72 -4 -81 -15 -7 -8 -34 -15 -68 -17
-50 -3 -57 -6 -60 -25 -3 -22 -7 -23 -140 -25 -133 -3 -137 -4 -140 -26 -3
-18 -10 -22 -36 -22 -17 0 -36 -4 -42 -10 -5 -5 -42 -12 -81 -16 -63 -6 -72
-9 -75 -28 -2 -13 -12 -22 -26 -24 -12 -2 -22 -8 -22 -13 0 -5 -33 -9 -74 -9
-70 0 -75 -1 -78 -22 -3 -22 -8 -23 -108 -26 -77 -2 -109 -7 -121 -18 -13 -12
-36 -15 -98 -12 -51 2 -81 -1 -81 -7 0 -6 -9 -18 -21 -28 -17 -15 -37 -17
-127 -15 -102 3 -107 4 -110 26 -2 13 -10 22 -21 22 -10 0 -24 7 -31 15 -7 8
-24 15 -39 15 -15 0 -31 4 -37 9 -5 5 -22 11 -39 13 -22 2 -31 9 -33 26 -2 13
-10 22 -21 22 -10 0 -28 11 -41 25 -16 17 -34 25 -56 25 -19 0 -34 6 -38 15
-4 11 -21 15 -65 15 -54 0 -60 2 -63 22 -2 13 -11 24 -21 26 -10 2 -47 33 -82
68 -36 35 -71 64 -79 64 -8 0 -18 5 -21 10 -3 6 -19 10 -34 10 -16 0 -34 7
-41 15 -7 8 -20 15 -29 15 -10 0 -28 11 -41 25 -19 20 -33 25 -75 25 -42 0
-56 5 -75 25 -13 14 -32 25 -42 25 -10 0 -21 7 -24 15 -5 12 -26 15 -105 15
-59 0 -99 4 -99 10 0 6 -83 10 -230 10 -147 0 -230 -4 -230 -10 0 -6 -31 -10
-74 -10 -56 0 -75 -4 -80 -15 -4 -12 -25 -15 -100 -15 -52 0 -98 -4 -101 -10
-4 -6 -53 -10 -114 -10 -84 0 -111 -3 -121 -15 -10 -12 -41 -15 -156 -15 -84
0 -145 -4 -149 -10 -3 -6 -44 -10 -90 -10 -46 0 -87 4 -90 10 -4 6 -73 10
-174 10 -138 0 -171 3 -181 15 -9 11 -32 15 -81 15 -37 0 -71 5 -74 10 -3 6
-38 10 -76 10 -53 0 -71 4 -75 15 -5 11 -24 15 -80 15 -43 0 -74 4 -74 10 0 6
-27 10 -60 10 -45 0 -62 4 -66 15 -4 8 -17 15 -30 15 -13 0 -24 5 -24 10 0 6
-8 10 -17 10 -10 0 -31 7 -47 15 -15 8 -41 15 -56 15 -16 0 -30 7 -34 15 -3 9
-19 15 -41 15 -19 0 -35 5 -35 10 0 6 -8 10 -19 10 -10 0 -24 7 -31 15 -7 8
-21 15 -31 15 -10 0 -21 5 -24 10 -3 6 -19 10 -34 10 -16 0 -37 10 -51 25 -14
15 -35 25 -51 25 -14 0 -32 7 -39 15 -7 8 -21 15 -31 15 -11 0 -19 4 -19 9 0
5 -16 12 -36 16 -20 3 -46 15 -57 26 -11 10 -26 19 -33 19 -6 0 -17 7 -24 15
-7 8 -20 15 -30 15 -10 0 -23 7 -30 15 -7 8 -25 15 -41 15 -16 0 -29 5 -29 10
0 6 -11 10 -24 10 -13 0 -26 7 -30 15 -3 8 -14 15 -25 15 -11 0 -23 4 -26 10
-3 5 -15 10 -26 10 -11 0 -22 7 -25 15 -4 8 -14 15 -24 15 -11 0 -21 4 -25 9
-3 5 -20 13 -37 17 -32 7 -44 11 -85 32 -13 7 -33 12 -46 12 -13 0 -36 13 -52
30 -22 23 -37 30 -68 30 -29 0 -46 6 -63 25 -17 19 -33 25 -63 25 -22 0 -43 4
-46 10 -3 5 -14 10 -24 10 -10 0 -24 7 -31 15 -7 8 -25 15 -41 15 -15 0 -31 4
-34 10 -3 6 -19 10 -34 10 -16 0 -37 10 -51 25 -18 19 -34 25 -67 25 -30 0
-45 5 -49 15 -4 10 -21 15 -54 15 -33 0 -50 5 -54 15 -4 10 -20 15 -50 15 -25
0 -48 5 -51 10 -3 6 -19 10 -34 10 -16 0 -34 7 -41 15 -8 9 -29 15 -56 15 -23
0 -46 5 -49 10 -4 6 -60 10 -134 10 -102 0 -131 3 -141 15 -9 11 -32 15 -79
15 -39 0 -72 5 -79 12 -7 7 -52 14 -104 16 -51 2 -97 8 -102 13 -6 5 -34 9
-62 9 -29 0 -55 4 -58 9 -3 5 -33 12 -66 16 -33 4 -63 11 -66 16 -3 5 -25 9
-48 9 -27 0 -48 6 -56 15 -8 10 -31 15 -66 15 -29 0 -56 5 -59 10 -3 6 -48 10
-99 10 -71 0 -97 4 -106 15 -9 11 -32 15 -81 15 -37 0 -71 4 -74 10 -3 5 -37
10 -74 10 -49 0 -72 4 -81 15 -10 12 -43 15 -179 15 -101 0 -171 4 -177 10 -6
6 -100 13 -225 17 -192 5 -215 4 -228 -10 -29 -35 -212 -17 -236 24 -4 5 -70
9 -149 9 -139 0 -143 1 -166 25 -18 19 -34 25 -66 25 -25 0 -47 6 -54 15 -7 8
-20 15 -29 15 -9 0 -25 11 -35 25 -10 14 -26 25 -36 25 -21 0 -50 31 -50 53 0
10 -8 17 -18 17 -10 0 -29 11 -42 25 -13 14 -31 25 -41 25 -9 0 -22 7 -29 15
-7 8 -19 15 -27 15 -17 0 -52 39 -53 58 0 7 -11 17 -25 22 -15 6 -25 17 -25
30 0 11 -4 20 -10 20 -5 0 -10 8 -10 18 0 10 -11 29 -25 42 -14 13 -25 28 -25
34 0 6 -11 23 -24 37 -13 14 -26 34 -28 45 -1 10 -14 21 -28 24 -16 4 -26 14
-28 28 -2 16 -10 22 -28 22 -13 0 -24 5 -24 11 0 7 -11 22 -25 35 -14 13 -25
29 -25 36 0 19 -81 95 -105 100 -12 2 -21 13 -23 26 -2 13 -10 22 -20 22 -9 0
-28 12 -41 25 -13 14 -29 25 -35 25 -7 0 -25 13 -41 30 -16 16 -37 30 -46 30
-10 0 -21 5 -24 10 -3 6 -19 10 -34 10 -16 0 -37 10 -51 25 -14 15 -35 25 -51
25 -14 0 -32 7 -39 15 -7 8 -25 15 -41 15 -15 0 -31 5 -34 10 -8 14 -435 14
-435 0 0 -5 -8 -10 -19 -10 -10 0 -24 -7 -31 -15 -7 -8 -21 -15 -31 -15 -10 0
-21 -5 -24 -10 -3 -6 -14 -10 -25 -10 -10 0 -20 -7 -24 -15 -3 -9 -19 -15 -41
-15 -19 0 -35 -4 -35 -10 0 -5 -15 -10 -33 -10 -25 0 -42 -9 -72 -40 -21 -22
-44 -40 -50 -40 -6 0 -22 -11 -35 -25 -14 -15 -35 -25 -51 -25 -14 0 -32 -7
-39 -15 -7 -8 -20 -15 -29 -15 -10 0 -28 -11 -41 -25 -14 -14 -35 -25 -50 -25
-15 0 -36 -11 -50 -25 -18 -19 -34 -25 -66 -25 -28 0 -44 -5 -48 -15 -3 -9
-18 -15 -37 -15 -21 0 -40 -8 -55 -25 -13 -14 -30 -25 -38 -25 -8 0 -18 -5
-21 -10 -3 -6 -19 -10 -34 -10 -16 0 -34 -7 -41 -15 -7 -8 -28 -15 -46 -15
-19 0 -34 -4 -34 -10 0 -5 -20 -10 -44 -10 -26 0 -48 -6 -56 -15 -7 -8 -21
-15 -31 -15 -11 0 -19 -4 -19 -10 0 -5 -11 -10 -24 -10 -13 0 -26 -7 -30 -15
-4 -11 -22 -15 -74 -15 -50 0 -73 -4 -82 -15 -7 -8 -21 -15 -31 -15 -11 0 -19
-4 -19 -10 0 -5 -9 -10 -19 -10 -11 0 -23 -5 -26 -10 -3 -6 -14 -10 -24 -10
-9 0 -30 -13 -46 -30 -26 -28 -34 -30 -97 -30 -39 0 -68 -4 -68 -10 0 -5 -8
-10 -19 -10 -10 0 -24 -7 -31 -15 -7 -8 -25 -15 -41 -15 -15 0 -31 -5 -34 -10
-3 -6 -30 -10 -59 -10 -35 0 -58 -5 -66 -15 -7 -8 -20 -15 -30 -15 -10 0 -23
-7 -30 -15 -8 -9 -30 -15 -56 -15 -24 0 -44 -4 -44 -10 0 -6 -26 -10 -59 -10
-40 0 -63 -5 -71 -15 -8 -9 -30 -15 -56 -15 -24 0 -44 -4 -44 -10 0 -5 -15
-10 -34 -10 -19 0 -37 -4 -41 -9 -14 -23 -72 -41 -130 -41 -43 0 -66 -5 -75
-15 -19 -23 -708 -23 -716 0 -4 8 -10 15 -15 15 -5 0 -9 -509 -9 -1215 l0
-1215 20440 0 20440 0 0 10055 0 10055 -24 0 c-13 0 -26 7 -30 15 -4 12 -30
15 -141 15 -83 0 -135 4 -135 10 0 6 -28 10 -65 10 -37 0 -65 -4 -65 -10z
m-6440 -10015 c8 -10 30 -15 65 -15 35 0 57 -5 65 -15 8 -9 29 -15 56 -15 23
0 46 -4 49 -10 3 -5 14 -10 25 -10 10 0 20 -7 24 -15 4 -11 21 -15 66 -15 33
0 60 -4 60 -10 0 -5 15 -10 33 -10 23 0 41 -8 57 -25 13 -14 29 -25 36 -25 6
0 17 -7 24 -15 7 -8 28 -15 46 -15 19 0 34 -4 34 -10 0 -5 8 -10 19 -10 10 0
24 -7 31 -15 7 -8 20 -15 30 -15 10 0 20 -7 24 -15 3 -8 14 -15 24 -15 10 0
29 -11 42 -25 13 -14 30 -25 38 -25 18 0 52 -38 52 -57 0 -7 8 -13 18 -13 20
0 52 -33 52 -53 0 -8 11 -24 25 -37 14 -13 25 -32 25 -42 0 -10 7 -21 15 -24
11 -4 15 -21 15 -55 0 -27 5 -49 10 -49 6 0 10 -40 10 -99 0 -56 -4 -103 -10
-106 -6 -3 -10 -48 -10 -99 0 -71 -4 -97 -15 -106 -8 -7 -15 -25 -15 -41 0
-15 -4 -31 -10 -34 -5 -3 -10 -15 -10 -26 0 -11 -7 -22 -15 -25 -8 -4 -15 -14
-15 -24 0 -11 -4 -22 -10 -25 -5 -3 -10 -14 -10 -24 0 -10 -7 -24 -15 -31 -8
-7 -15 -25 -15 -41 0 -15 -4 -31 -10 -34 -5 -3 -10 -15 -10 -26 0 -11 -7 -22
-15 -25 -8 -4 -15 -12 -15 -20 0 -13 -9 -34 -32 -74 -4 -8 -12 -24 -17 -35 -5
-11 -18 -29 -30 -39 -11 -11 -21 -27 -21 -36 0 -9 -11 -27 -25 -40 -14 -13
-25 -28 -25 -34 0 -6 -22 -33 -50 -61 -27 -27 -49 -57 -50 -65 0 -20 -291
-310 -311 -310 -8 0 -31 -16 -49 -35 -34 -35 -82 -65 -105 -65 -6 0 -29 -18
-50 -40 -21 -22 -47 -40 -56 -40 -9 0 -19 -7 -23 -15 -3 -9 -19 -15 -41 -15
-19 0 -35 -4 -35 -10 0 -5 -8 -10 -19 -10 -10 0 -24 -7 -31 -15 -7 -8 -21 -15
-31 -15 -11 0 -19 -4 -19 -10 0 -5 -8 -10 -19 -10 -10 0 -24 -7 -31 -15 -8 -9
-29 -15 -56 -15 -23 0 -46 -4 -49 -10 -3 -5 -19 -10 -34 -10 -16 0 -34 -7 -41
-15 -9 -11 -35 -15 -105 -15 -70 0 -96 -4 -105 -15 -9 -11 -33 -15 -85 -15
-52 0 -76 4 -85 15 -8 10 -31 15 -70 15 -42 0 -59 4 -64 15 -3 9 -19 15 -41
15 -19 0 -35 5 -35 10 0 6 -15 10 -33 10 -23 0 -41 8 -57 25 -13 14 -29 25
-35 25 -7 0 -30 18 -51 40 -21 21 -47 40 -59 42 -11 2 -21 12 -24 23 -2 11
-19 35 -37 53 -19 18 -34 38 -34 45 0 7 -11 24 -25 39 -14 15 -25 34 -25 41 0
8 -7 20 -15 27 -8 7 -15 25 -15 41 0 15 -4 31 -10 34 -5 3 -10 19 -10 34 0 16
-7 34 -15 41 -8 7 -15 28 -15 46 0 19 -4 34 -10 34 -6 0 -10 70 -10 189 0 116
4 192 10 196 6 3 10 19 10 34 0 16 7 34 15 41 10 8 15 31 15 66 0 29 5 56 10
59 6 3 10 22 10 41 0 22 6 37 15 40 9 4 15 19 15 39 0 19 5 37 10 40 6 3 10
19 10 34 0 16 7 34 15 41 8 7 15 25 15 41 0 15 5 31 10 34 6 3 10 19 10 34 0
16 7 34 15 41 8 7 15 21 15 31 0 10 5 21 10 24 6 3 10 19 10 34 0 16 7 34 15
41 8 7 15 18 15 25 0 7 7 18 15 25 8 7 15 26 15 41 0 22 6 32 25 39 19 7 25
17 25 39 0 16 5 33 10 36 6 3 10 13 10 21 0 8 11 25 25 38 14 13 25 30 25 38
0 9 7 21 15 28 8 7 15 21 15 31 0 11 9 19 22 21 13 2 24 11 26 22 5 24 186
206 205 206 8 0 20 7 27 15 7 8 19 15 28 15 8 0 25 11 38 25 13 14 30 25 38
25 8 0 18 5 21 10 3 6 19 10 34 10 16 0 34 7 41 15 9 11 32 15 80 15 48 0 71
4 80 15 10 12 44 15 190 15 146 0 180 -3 190 -15z"/>
<path d="M0 11105 c0 -4978 0 -5095 19 -5095 10 0 24 -7 31 -15 7 -8 25 -15
41 -15 15 0 31 -4 34 -10 3 -5 14 -10 23 -10 9 0 28 -12 41 -25 21 -23 58 -44
103 -59 10 -3 18 -15 18 -26 0 -16 7 -20 30 -20 20 0 33 -6 37 -17 3 -10 23
-36 43 -58 21 -22 40 -49 42 -60 2 -14 13 -21 38 -25 27 -4 36 -10 38 -27 2
-14 10 -23 21 -23 10 0 28 -11 41 -25 13 -14 31 -25 41 -25 10 0 26 -11 37
-25 11 -14 26 -25 34 -25 7 0 25 -11 40 -25 15 -14 33 -25 41 -25 7 0 24 -11
37 -25 13 -14 30 -25 37 -25 8 0 24 -11 37 -25 15 -17 34 -25 55 -25 19 0 34
-6 37 -15 4 -11 21 -15 55 -15 27 0 49 -4 49 -10 0 -6 65 -10 174 -10 106 0
177 4 181 10 3 6 32 10 65 10 42 0 59 4 64 15 3 8 14 15 25 15 11 0 23 5 26
10 3 6 19 10 34 10 16 0 34 7 41 15 7 8 21 15 31 15 11 0 19 5 19 10 0 6 15
10 34 10 18 0 39 7 46 15 7 8 19 15 27 15 8 0 24 11 35 25 11 14 28 25 38 25
9 0 23 7 30 15 7 8 21 15 31 15 11 0 19 5 19 10 0 6 8 10 18 10 10 0 29 11 42
25 13 14 32 25 42 25 10 0 21 7 24 15 4 8 14 15 23 15 10 0 28 11 41 25 13 14
31 25 40 25 8 0 30 15 48 34 32 34 84 66 107 66 6 0 22 11 35 25 13 14 29 25
35 25 7 0 30 18 51 40 22 22 46 40 55 40 8 0 26 11 39 25 14 14 35 25 50 25
15 0 36 11 50 25 13 14 31 25 41 25 9 0 19 7 23 15 3 8 14 15 24 15 10 0 29
11 42 25 13 14 32 25 42 25 10 0 18 5 18 10 0 6 8 10 19 10 10 0 24 7 31 15 7
8 20 15 30 15 10 0 23 7 30 15 7 8 25 15 41 15 15 0 31 5 34 10 3 6 13 10 21
10 8 0 25 11 38 25 15 16 34 25 54 25 17 0 32 6 36 15 3 9 18 15 36 15 19 0
41 10 58 25 18 17 38 25 64 25 20 0 40 4 43 10 3 6 14 10 24 10 10 0 24 7 31
15 7 8 25 15 40 15 15 0 33 7 40 15 8 10 31 15 66 15 29 0 56 4 59 10 3 5 22
10 41 10 19 0 34 5 34 10 0 6 8 10 19 10 10 0 24 7 31 15 8 10 30 15 65 15 35
0 57 5 65 15 10 12 38 15 131 15 68 0 120 4 124 10 8 13 72 13 80 0 4 -6 90
-10 224 -10 182 0 221 -3 231 -15 9 -11 34 -15 95 -15 64 0 84 -3 89 -15 4
-11 21 -15 66 -15 33 0 60 -4 60 -10 0 -6 56 -10 149 -10 120 0 151 -3 161
-15 9 -11 33 -15 91 -15 43 0 81 -4 84 -10 3 -5 37 -10 74 -10 49 0 72 -4 81
-15 10 -12 37 -15 121 -15 66 0 109 -4 109 -10 0 -6 38 -10 94 -10 71 0 97 -4
106 -15 8 -10 31 -15 71 -15 33 0 59 -4 59 -10 0 -6 30 -10 69 -10 49 0 72 -4
81 -15 9 -11 35 -15 106 -15 51 0 96 -4 99 -10 3 -5 19 -10 34 -10 16 0 34 -7
41 -15 10 -12 39 -15 146 -15 78 0 135 -4 139 -10 4 -6 72 -10 171 -10 103 0
164 4 164 10 0 6 26 10 59 10 40 0 63 5 71 15 8 10 31 15 66 15 29 0 56 5 59
10 3 6 19 10 34 10 16 0 34 7 41 15 7 8 21 15 31 15 10 0 21 5 24 10 3 6 19
10 34 10 16 0 34 7 41 15 7 8 22 15 35 15 24 0 81 26 90 41 4 5 18 9 33 9 15
0 39 11 54 25 15 14 34 25 41 25 8 0 20 7 27 15 7 8 25 15 39 15 18 0 39 12
61 35 22 23 43 35 60 35 15 0 36 11 50 25 13 14 31 25 41 25 9 0 22 6 29 14 6
8 26 16 43 18 24 2 33 8 35 26 2 13 10 22 21 22 10 0 24 7 31 15 7 8 25 15 41
15 21 0 28 5 31 23 2 17 10 23 40 25 29 2 37 8 40 25 2 16 11 23 33 25 17 2
34 8 40 13 5 5 15 9 23 9 8 0 28 13 44 30 15 16 34 30 41 30 8 0 24 11 37 25
13 14 31 25 41 25 11 0 19 9 21 23 2 17 11 23 36 25 24 2 35 10 42 28 5 13 16
24 23 24 7 0 24 11 37 25 13 14 31 25 40 25 9 0 31 16 50 35 19 19 41 35 49
35 9 1 34 19 56 40 22 22 44 40 50 40 7 0 22 11 35 25 13 14 31 25 40 25 9 0
21 5 27 11 6 6 21 16 34 23 12 6 30 25 39 41 12 22 25 31 48 33 23 2 32 9 34
25 2 12 12 23 23 25 11 2 31 14 45 25 32 28 66 47 83 47 8 0 22 10 33 21 10
12 28 25 39 30 11 5 27 13 35 18 8 5 22 12 30 15 8 4 29 15 45 25 17 11 37 20
46 20 9 1 22 8 29 16 7 8 19 15 27 15 7 0 24 9 36 20 25 24 74 50 94 50 7 0
16 7 19 15 4 8 14 15 24 15 10 0 23 7 30 15 7 8 20 15 29 16 9 0 30 9 46 20
17 10 37 21 45 25 8 3 23 10 32 15 10 5 24 9 32 9 8 0 16 7 20 15 3 8 14 15
24 15 10 0 29 11 42 25 13 14 30 25 37 25 8 0 31 16 51 35 20 19 42 35 47 35
6 0 29 18 50 40 21 22 45 40 53 40 17 0 312 294 313 312 0 7 9 27 20 43 10 17
21 37 25 45 3 8 10 23 15 32 5 10 9 24 9 31 0 8 11 23 25 33 14 10 25 26 25
35 0 9 7 22 15 29 8 7 15 21 15 31 0 11 9 19 23 21 17 2 23 10 25 40 2 29 8
37 25 40 12 2 23 12 25 22 2 10 15 29 28 41 13 12 24 29 24 36 0 8 29 44 65
79 36 35 65 72 65 82 0 11 7 18 18 18 10 0 36 18 57 40 21 22 46 40 55 40 8 0
32 18 54 40 27 28 47 40 67 40 15 0 31 5 34 10 3 6 14 10 25 10 10 0 20 7 24
15 4 10 20 15 50 15 25 0 48 5 51 10 3 6 15 10 25 10 10 0 23 7 28 16 8 14 10
14 21 0 20 -24 33 -20 76 24 30 29 48 39 73 40 17 0 32 5 32 10 0 6 8 10 18
10 21 0 62 40 62 59 0 8 11 24 25 37 14 13 25 30 25 38 0 8 4 18 10 21 5 3 10
19 10 34 0 16 7 34 15 41 9 7 15 29 15 54 0 23 5 47 12 54 9 9 9 15 0 24 -7 7
-12 20 -12 29 0 9 -7 19 -15 23 -9 3 -15 18 -15 38 0 24 -7 39 -25 52 -14 10
-25 26 -25 35 0 21 -80 101 -101 101 -9 0 -25 11 -35 25 -10 14 -26 25 -35 25
-9 0 -22 7 -29 15 -7 8 -21 15 -31 15 -11 0 -19 5 -19 10 0 6 -26 10 -59 10
-40 0 -63 5 -71 15 -14 17 -66 20 -75 5 -3 -5 -19 -10 -34 -10 -16 0 -34 -7
-41 -15 -15 -18 -77 -20 -82 -3 -3 8 -38 11 -121 10 -90 -1 -119 2 -131 13 -8
8 -32 15 -54 15 -23 0 -45 6 -52 15 -7 9 -29 15 -51 15 -70 0 -79 17 -79 152
0 67 -4 119 -10 123 -5 3 -10 20 -10 36 0 22 -11 40 -40 68 -22 21 -40 45 -40
54 0 9 -4 19 -10 22 -5 3 -10 30 -10 59 0 35 -5 58 -15 66 -9 7 -15 29 -15 55
0 26 -6 48 -15 55 -8 7 -15 21 -15 31 0 11 -4 19 -10 19 -6 0 -10 26 -10 59 0
33 -4 62 -8 65 -5 3 -12 65 -16 138 -4 73 -11 137 -16 142 -6 6 -10 22 -10 37
0 15 -7 32 -15 39 -8 7 -15 21 -15 31 0 10 -4 21 -10 24 -5 3 -10 19 -10 34 0
16 -7 34 -15 41 -8 7 -15 21 -15 31 0 11 -4 19 -10 19 -5 0 -10 8 -10 19 0 10
-7 24 -15 31 -8 7 -15 21 -15 31 0 11 -4 19 -10 19 -5 0 -12 11 -16 24 -3 13
-17 34 -30 47 -13 12 -24 30 -24 39 0 9 -16 31 -35 50 -19 19 -35 40 -35 47 0
8 -11 24 -25 37 -14 13 -25 30 -25 38 0 23 -64 78 -91 78 -14 0 -36 11 -49 25
-13 14 -31 25 -41 25 -9 0 -22 7 -29 15 -7 8 -25 15 -41 15 -15 0 -31 5 -34
10 -3 6 -30 10 -59 10 -35 0 -58 5 -66 15 -7 8 -25 15 -41 15 -15 0 -31 5 -34
10 -3 6 -37 10 -74 10 -49 0 -72 4 -81 15 -9 11 -32 15 -80 15 -48 0 -71 4
-80 15 -7 9 -29 15 -51 15 -21 0 -41 5 -44 10 -3 6 -37 10 -74 10 -49 0 -72 4
-81 15 -7 8 -21 15 -31 15 -10 0 -21 5 -24 10 -3 6 -18 10 -32 10 -15 0 -35 7
-45 16 -16 16 -18 16 -24 0 -8 -20 -57 -21 -74 -1 -9 11 -32 15 -80 15 -51 0
-69 -4 -74 -15 -4 -11 -21 -15 -62 -15 -48 0 -60 -4 -80 -25 -13 -14 -29 -25
-36 -25 -16 0 -158 -141 -158 -157 0 -6 -11 -21 -25 -34 -13 -13 -25 -29 -25
-35 0 -17 -27 -67 -50 -91 -11 -12 -20 -29 -20 -36 0 -8 -7 -20 -15 -27 -8 -7
-15 -20 -16 -29 0 -9 -9 -29 -20 -46 -10 -16 -21 -37 -25 -45 -3 -8 -10 -22
-15 -30 -5 -8 -13 -24 -18 -35 -5 -11 -18 -29 -30 -39 -11 -11 -21 -26 -22
-35 0 -9 -9 -29 -20 -46 -10 -16 -21 -37 -25 -45 -17 -44 -27 -67 -35 -83 -5
-9 -16 -39 -25 -65 -9 -26 -22 -54 -30 -63 -8 -8 -14 -22 -14 -29 0 -7 -6 -21
-14 -29 -7 -9 -21 -38 -31 -66 -10 -27 -22 -54 -27 -60 -4 -5 -8 -19 -8 -31 0
-26 -26 -90 -40 -99 -5 -3 -10 -19 -10 -35 0 -16 -4 -31 -9 -34 -4 -3 -11 -26
-15 -52 -3 -26 -10 -52 -15 -58 -9 -12 -14 -38 -30 -174 -6 -45 -15 -91 -21
-102 -6 -11 -10 -98 -10 -208 0 -156 -3 -192 -15 -202 -11 -9 -15 -35 -15
-106 0 -51 -4 -96 -10 -99 -5 -3 -10 -26 -10 -49 0 -27 -6 -48 -15 -56 -9 -8
-15 -30 -15 -56 0 -24 -4 -44 -10 -44 -5 0 -10 -20 -10 -44 0 -26 -6 -48 -15
-56 -8 -7 -15 -19 -15 -28 0 -8 -11 -25 -25 -38 -14 -13 -25 -29 -25 -36 0 -8
-23 -36 -50 -63 -28 -27 -50 -56 -50 -65 0 -18 -186 -200 -204 -200 -8 0 -19
-7 -26 -15 -7 -8 -25 -15 -40 -15 -15 0 -33 -7 -40 -15 -7 -8 -25 -15 -41 -15
-15 0 -31 -4 -34 -10 -3 -5 -15 -10 -26 -10 -11 0 -22 -7 -25 -15 -4 -9 -19
-15 -40 -15 -19 0 -34 -4 -34 -10 0 -6 -83 -10 -229 -10 -143 0 -232 4 -236
10 -3 6 -38 10 -76 10 -53 0 -71 4 -75 15 -4 8 -14 15 -23 15 -10 0 -28 11
-41 25 -16 17 -34 25 -57 25 -18 0 -33 5 -33 10 0 6 -8 10 -19 10 -10 0 -24 7
-31 15 -7 8 -20 15 -30 15 -10 0 -20 7 -24 15 -3 8 -14 15 -24 15 -10 0 -29
11 -42 25 -13 14 -30 25 -38 25 -8 0 -25 11 -38 25 -13 14 -29 25 -37 25 -7 0
-28 16 -47 35 -19 19 -41 35 -49 35 -9 0 -45 30 -80 65 -35 36 -69 65 -75 65
-7 0 -36 25 -66 55 -30 30 -60 55 -67 55 -7 0 -36 23 -63 50 -27 27 -56 50
-63 50 -7 0 -24 11 -37 25 -13 14 -30 25 -38 25 -8 0 -25 11 -38 25 -13 14
-29 25 -36 25 -8 0 -32 18 -53 40 -21 22 -46 40 -55 40 -9 0 -27 11 -40 25
-13 14 -29 25 -35 25 -6 0 -22 11 -35 25 -13 14 -29 25 -35 25 -21 0 -73 30
-97 55 -13 14 -30 25 -39 25 -20 0 -49 31 -49 53 0 10 -8 17 -18 17 -10 0 -29
11 -42 25 -13 14 -30 25 -38 25 -8 0 -43 29 -79 65 -35 36 -71 65 -80 65 -8 0
-17 9 -20 21 -3 11 -16 25 -29 30 -13 4 -24 16 -24 24 0 9 -18 33 -40 54 -22
21 -40 45 -40 54 0 9 -4 19 -10 22 -6 3 -10 14 -10 23 -1 9 -14 28 -30 42 -17
13 -30 31 -30 40 0 9 -11 27 -25 40 -14 13 -25 31 -25 39 0 9 -11 25 -25 35
-14 10 -25 26 -25 36 0 9 -11 27 -25 40 -14 13 -25 32 -25 42 0 10 -4 18 -10
18 -5 0 -10 8 -10 18 0 9 -22 40 -50 67 -27 28 -49 57 -50 66 0 8 -16 31 -36
50 -20 18 -40 43 -45 54 -5 11 -13 27 -17 35 -23 40 -32 61 -32 74 0 8 -7 16
-15 20 -9 3 -15 18 -15 36 0 17 -7 38 -15 46 -8 9 -15 29 -15 45 0 16 -4 29
-10 29 -5 0 -10 8 -10 18 0 11 -18 37 -40 60 -29 29 -40 49 -40 71 0 17 -4 31
-10 31 -5 0 -10 8 -10 19 0 10 -7 24 -15 31 -8 7 -15 21 -15 31 0 11 -4 19
-10 19 -5 0 -10 16 -10 35 0 22 -6 38 -15 41 -9 4 -15 19 -15 39 0 18 -7 38
-15 45 -8 7 -15 25 -15 39 0 16 -10 37 -25 51 -15 14 -25 35 -25 51 0 15 -4
31 -10 34 -5 3 -10 14 -10 25 0 10 -7 20 -15 24 -8 3 -15 14 -15 24 0 10 -11
29 -25 42 -14 13 -25 29 -25 35 0 18 -27 68 -50 92 -11 12 -20 29 -20 36 0 8
-7 20 -15 27 -8 7 -15 25 -15 39 0 16 -10 37 -25 51 -14 13 -25 30 -25 37 0 8
-11 24 -25 37 -14 13 -25 30 -25 38 0 8 -11 25 -25 38 -14 13 -25 30 -25 37 0
8 -11 24 -25 37 -14 13 -25 30 -25 38 0 9 -7 21 -15 28 -8 7 -15 19 -15 27 0
7 -11 26 -25 41 -14 15 -25 32 -25 38 0 6 -11 21 -25 34 -17 16 -25 34 -25 56
0 19 -6 34 -15 38 -10 4 -15 20 -15 50 0 25 -4 48 -10 51 -5 3 -10 14 -10 24
0 10 -11 27 -25 37 -17 13 -25 28 -25 50 0 23 -8 37 -30 54 -17 13 -30 29 -30
37 0 7 -4 21 -9 31 -5 9 -12 24 -15 32 -4 8 -15 29 -25 45 -11 17 -20 37 -20
46 -1 9 -8 22 -16 29 -8 7 -15 25 -15 39 0 16 -10 37 -25 51 -15 14 -25 35
-25 51 0 15 -4 31 -10 34 -5 3 -10 19 -10 34 0 16 -7 34 -15 41 -9 8 -15 29
-15 56 0 23 -4 46 -10 49 -5 3 -10 19 -10 34 0 16 -7 34 -15 41 -8 7 -15 20
-15 30 0 10 -7 23 -15 30 -8 7 -15 25 -15 41 0 16 -4 29 -10 29 -5 0 -10 16
-10 35 0 22 -6 38 -15 41 -8 4 -15 14 -15 23 0 10 -11 28 -25 41 -14 13 -25
32 -25 42 0 11 -7 18 -18 18 -23 0 -62 40 -62 63 0 13 -9 17 -44 17 -26 0 -48
6 -56 15 -8 9 -30 15 -56 15 -24 0 -44 5 -44 10 0 6 -70 10 -189 10 -159 0
-190 2 -195 15 -3 10 -19 15 -46 15 -22 0 -49 5 -60 12 -15 10 -24 9 -45 -2
-21 -11 -30 -12 -45 -2 -11 7 -30 12 -44 12 -13 0 -29 7 -36 15 -8 10 -31 15
-71 15 -33 0 -59 4 -59 10 0 6 -20 10 -44 10 -26 0 -48 6 -56 15 -7 9 -29 15
-55 15 -26 0 -48 6 -55 15 -7 8 -25 15 -41 15 -15 0 -31 5 -34 10 -3 6 -13 10
-21 10 -8 0 -25 11 -38 25 -13 14 -30 25 -38 25 -9 0 -21 7 -28 15 -7 8 -19
15 -28 15 -8 0 -25 11 -37 24 -12 13 -31 26 -41 28 -10 2 -20 11 -22 21 -2 10
-21 35 -43 55 -21 20 -39 44 -39 53 0 8 -11 26 -25 39 -14 13 -25 32 -25 42 0
10 -4 18 -10 18 -5 0 -10 8 -10 18 0 10 -11 29 -25 42 -14 13 -25 31 -25 41 0
9 -7 22 -15 29 -8 7 -15 20 -15 29 0 9 -11 25 -25 35 -18 14 -25 28 -25 52 0
19 -4 34 -10 34 -5 0 -10 8 -10 18 0 10 -13 31 -30 47 -26 25 -30 36 -30 81 0
29 -4 56 -10 59 -6 3 -10 25 -10 49 0 32 -6 48 -25 66 -14 14 -25 35 -25 50 0
15 -11 36 -25 50 -14 13 -25 32 -25 42 0 10 -7 21 -15 24 -9 4 -15 19 -15 39
0 23 -7 39 -24 52 -13 11 -25 28 -27 39 -3 11 -14 20 -27 22 -13 2 -22 10 -22
21 0 20 -40 61 -58 61 -7 0 -15 8 -19 18 -3 9 -24 36 -46 60 -38 39 -45 42
-92 42 -44 0 -55 4 -80 30 -16 17 -37 30 -47 30 -10 0 -18 4 -18 9 0 6 -17 11
-37 13 -31 2 -39 7 -41 26 -3 21 -7 22 -103 22 l-99 0 0 -5095z"/>
</g>
</svg>
